FFmpeg version SVN-r25716, Copyright (c) 2000-2010 the FFmpeg developers  built on Nov 10 2010 12:23:18 with gcc 4.1.2 20080704 (Red Hat 4.1.2-48)  configuration: --enable-libmp3lame --enable-shared --disable-mmx --arch=x86_64  libavutil     50.33. 0 / 50.33. 0  libavcore      0.12. 1 /  0.12. 1  libavcodec    52.94. 4 / 52.94. 4  libavformat   52.84. 0 / 52.84. 0  libavdevice   52. 2. 2 / 52. 2. 2  libavfilter    1.59. 0 /  1.59. 0  libswscale     0.12. 0 /  0.12. 0Input #0, avi, from '/RAID10/data/converted_video_files/47392.avi':  Duration: 00:00:02.80, start: 0.000000, bitrate: 20983 kb/s    Stream #0.0: Video: msvideo1, rgb555le, 1024x1024, 20 tbr, 20 tbn, 20 tbc[buffer @ 0x7ab42f0] w:1024 h:1024 pixfmt:rgb555le[ffsink @ 0x7ae1b90] auto-inserting filter 'auto-inserted scaler 0' between the filter 'src' and the filter 'out'[scale @ 0x7ae1eb0] w:1024 h:1024 fmt:rgb555le -> w:1024 h:1024 fmt:yuv420p flags:0x4Output #0, flv, to '/RAID10/data/converted_video_files/47392.flv':  Metadata:    encoder         : Lavf52.84.0    Stream #0.0: Video: flv, yuv420p, 1024x1024, q=2-31, 600 kb/s, 1k tbn, 24 tbcStream mapping:  Stream #0.0 -> #0.0Press [q] to stop encodingframe=    8 fps=  0 q=8.9 size=     360kB time=0.37 bitrate=7880.9kbits/s    frame=   19 fps= 17 q=31.0 size=     419kB time=0.96 bitrate=3577.0kbits/s    frame=   30 fps= 18 q=31.0 size=     479kB time=1.50 bitrate=2616.9kbits/s    frame=   41 fps= 19 q=31.0 size=     522kB time=2.04 bitrate=2094.8kbits/s    frame=   52 fps= 19 q=31.0 size=     560kB time=2.58 bitrate=1776.3kbits/s    frame=   56 fps= 19 q=31.0 Lsize=     564kB time=2.79 bitrate=1655.6kbits/s    video:563kB audio:0kB global headers:0kB muxing overhead 0.191852%